<svg width="24" height="24" viewBox="0 0 24 24" fill="none" xmlns="http://www.w3.org/2000/svg">
<rect width="24" height="24" fill="#A0A6BA"/>
<path d="M17.7247 8.99717C17.7345 9.12842 17.7345 9.25892 17.7345 9.38942C17.7345 13.3832 14.6947 17.9852 9.1395 17.9852C7.428 17.9852 5.838 17.4894 4.5 16.6284C4.743 16.6562 4.977 16.6659 5.22975 16.6659C6.58949 16.6692 7.91073 16.2145 8.9805 15.3752C8.35007 15.3638 7.73893 15.1558 7.23243 14.7802C6.72593 14.4047 6.34934 13.8803 6.15525 13.2804C6.342 13.3082 6.5295 13.3269 6.726 13.3269C6.99675 13.3269 7.269 13.2894 7.52175 13.2242C6.83757 13.086 6.22236 12.7152 5.78071 12.1747C5.33907 11.6342 5.09827 10.9574 5.09925 10.2594V10.2219C5.502 10.4462 5.96925 10.5864 6.46425 10.6052C6.04957 10.3296 5.70954 9.95569 5.4745 9.51677C5.23947 9.07784 5.11673 8.58756 5.11725 8.08967C5.11725 7.52867 5.2665 7.01417 5.52825 6.56567C6.28735 7.49944 7.23413 8.26334 8.30725 8.80792C9.38038 9.35249 10.5559 9.66558 11.7578 9.72692C11.7112 9.50192 11.6827 9.26867 11.6827 9.03467C11.6826 8.63789 11.7606 8.24497 11.9123 7.87835C12.0641 7.51174 12.2866 7.17863 12.5671 6.89806C12.8477 6.6175 13.1808 6.39498 13.5474 6.24323C13.914 6.09148 14.307 6.01348 14.7037 6.01367C15.5737 6.01367 16.359 6.37817 16.911 6.96767C17.5873 6.83688 18.2359 6.58999 18.828 6.23792C18.6026 6.93603 18.1303 7.528 17.4998 7.90292C18.0996 7.83451 18.6858 7.67676 19.239 7.43492C18.8258 8.03725 18.3139 8.56543 17.7247 8.99717Z" fill="white"/>
</svg>
