<svg width="47" height="24" viewBox="0 0 47 24" fill="none" xmlns="http://www.w3.org/2000/svg">
<g clip-path="url(#clip0_1684_33098)">
<path d="M18.9531 2.48828L29.2744 13.4141L28.1894 14.4825L26.56 12.7629L24.95 14.3486C24.5842 14.7125 24.1494 14.9991 23.6711 15.1916C23.1929 15.3841 22.681 15.4785 22.1658 15.4692H22.1619C21.6472 15.4606 21.1395 15.3486 20.6688 15.1399C20.1981 14.9312 19.7739 14.6299 19.4214 14.254C18.7008 13.4869 18.308 12.4678 18.3268 11.4144C18.3456 10.361 18.7746 9.35674 19.522 8.61599L20.6004 7.56127L21.6497 8.66644L20.5698 9.72345C20.1105 10.1781 19.8468 10.7948 19.835 11.4417C19.8232 12.0885 20.0641 12.7144 20.5064 13.1857C20.7227 13.4163 20.983 13.6012 21.2718 13.7292C21.5607 13.8572 21.8722 13.9259 22.188 13.9311H22.1903C22.5072 13.9367 22.8219 13.8785 23.116 13.7598C23.41 13.6412 23.6772 13.4646 23.9018 13.2405L25.5109 11.6541L18.952 4.71902L18.9531 2.48828Z" fill="#616267"/>
<path d="M8.84766 3.90234H12.0503C15.9277 3.90234 16.8745 6.85144 16.8745 8.58417C16.8745 10.9779 15.1236 13.266 11.8419 13.266H8.84766V3.90234ZM10.0919 12.0758H11.6614C13.7623 12.0758 15.5518 10.8984 15.5518 8.58417C15.5518 7.39371 14.9424 5.09258 11.9604 5.09258H10.0919V12.0758Z" fill="#616267"/>
<path d="M32.1035 3.9043H35.294C36.8891 3.9043 38.0823 4.65819 38.0823 6.24532C38.0823 7.31679 37.434 7.99112 36.5002 8.30891V8.33551C37.6026 8.41507 38.4847 9.40674 38.4847 10.6632C38.4847 12.3425 37.0451 13.2686 35.2556 13.2686H32.1035V3.9043ZM33.3484 7.79279H35.0474C35.994 7.79279 36.7592 7.40919 36.7592 6.39069C36.7592 5.64986 36.3053 5.01497 35.3068 5.01497H33.3484V7.79279ZM33.3484 12.1575H35.1771C35.9293 12.1575 37.1616 11.8927 37.1616 10.5704C37.1616 9.45925 36.3964 8.90392 35.1904 8.90392H33.3489V12.1575H33.3484Z" fill="#616267"/>
<path d="M19.9355 0.948225L19.1875 1.67896L20.2354 2.78551L20.9832 2.05523C21.1522 1.88753 21.3529 1.75538 21.5736 1.66654C21.7942 1.57769 22.0304 1.53395 22.2681 1.53788C22.5059 1.54181 22.7404 1.59334 22.958 1.68942C23.1756 1.78551 23.3719 1.92423 23.5353 2.09741C23.8672 2.45188 24.048 2.92227 24.0391 3.40836C24.0302 3.89446 23.8322 4.35785 23.4874 4.69983L22.7447 5.4253L23.7926 6.53184L24.5352 5.8066C25.1676 5.17825 25.5304 4.32726 25.5462 3.43482C25.5621 2.54239 25.2298 1.679 24.62 1.02848C24.3202 0.710523 23.9601 0.455804 23.5608 0.279272C23.1614 0.102741 22.7309 0.00795518 22.2945 0.000479591C21.8581 -0.006996 21.4246 0.0729892 21.0195 0.23574C20.6144 0.39849 20.2458 0.640725 19.9353 0.948225H19.9355ZM28.3764 5.35307C29.0969 6.12013 29.4897 7.13908 29.4709 8.19242C29.4522 9.24575 29.0233 10.25 28.276 10.9908L28.1429 11.116L27.089 10.0166L27.2295 9.88425C27.6885 9.42948 27.9521 8.81289 27.9639 8.16605C27.9758 7.51922 27.7349 6.89335 27.2928 6.42201C27.0542 6.15864 26.7577 5.95454 26.4267 5.82586V4.23369C27.1736 4.40436 27.8529 4.79404 28.378 5.35307" fill="#616267"/>
<path d="M4.10429 19.9344V22.1642C3.57983 22.4397 2.99605 22.5822 2.40394 22.5794C0.881334 22.5806 -0.000525491 21.488 -0.000525491 20.2038C-0.0115379 19.8912 0.0412535 19.5797 0.154612 19.2884C0.267971 18.997 0.439509 18.7319 0.658708 18.5093C0.877907 18.2868 1.14015 18.1114 1.42936 17.9941C1.71856 17.8767 2.02864 17.8197 2.34058 17.8267C3.16525 17.8267 3.66737 18.0503 4.01554 18.4146L3.58479 18.881C3.42045 18.7212 3.22557 18.5964 3.01187 18.5141C2.79817 18.4317 2.57006 18.3935 2.34126 18.4018C1.31346 18.4018 0.647086 19.2133 0.647086 20.2035C0.639113 20.4379 0.678393 20.6714 0.762576 20.8901C0.846758 21.1088 0.974111 21.3083 1.13701 21.4765C1.29991 21.6448 1.495 21.7784 1.71061 21.8692C1.92622 21.9601 2.15792 22.0065 2.39182 22.0055C2.77328 22.0171 3.15185 21.9358 3.49511 21.7687V20.5103H2.4991V19.9344H4.10429Z" fill="#616267"/>
<path d="M5.11523 17.6367H5.68732V22.4676H5.11523V17.6367Z" fill="#616267"/>
<path d="M8.04606 19.3634C8.35947 19.3656 8.6652 19.4608 8.92471 19.637C9.18422 19.8131 9.38589 20.0623 9.50431 20.3532C9.62272 20.6441 9.65259 20.9636 9.59013 21.2714C9.52767 21.5792 9.37568 21.8617 9.15333 22.0831C8.93098 22.3045 8.64821 22.4549 8.34067 22.5155C8.03313 22.5761 7.71459 22.544 7.42519 22.4234C7.13579 22.3028 6.88849 22.099 6.71446 21.8378C6.54043 21.5765 6.44746 21.2694 6.44727 20.9553C6.44669 20.7452 6.48772 20.537 6.56799 20.3429C6.64826 20.1489 6.76617 19.9727 6.91489 19.8246C7.0636 19.6765 7.24017 19.5595 7.43434 19.4803C7.62852 19.4011 7.83644 19.3614 8.04606 19.3634ZM8.04606 22.0086C8.65501 22.0086 9.03566 21.5677 9.03566 20.9539C9.03566 20.3401 8.65501 19.9006 8.04606 19.9006C7.4371 19.9006 7.05622 20.3408 7.05622 20.9553C7.05622 21.5698 7.43665 22.0086 8.04606 22.0086Z" fill="#616267"/>
<path d="M10.3613 17.6367H10.9332V19.8734H10.9458C11.0662 19.7099 11.2243 19.5779 11.4066 19.4889C11.5888 19.3999 11.7899 19.3564 11.9926 19.3621C12.9188 19.3621 13.5216 20.0458 13.5216 20.9529C13.5216 21.8471 12.9252 22.5439 11.9926 22.5439C11.7902 22.5477 11.5898 22.5033 11.4079 22.4144C11.2259 22.3255 11.0676 22.1947 10.9458 22.0326H10.9332V22.4683H10.3613V17.6367ZM12.912 20.9529C12.912 20.3396 12.5313 19.8982 11.9221 19.8982C11.313 19.8982 10.9323 20.3389 10.9323 20.9529C10.9323 21.5669 11.313 22.0076 11.9221 22.0076C12.5313 22.0076 12.9117 21.5665 12.9117 20.9534L12.912 20.9529Z" fill="#616267"/>
<path d="M14.2511 19.8107C14.5795 19.5183 15.0047 19.3589 15.4439 19.3634C16.3321 19.3634 16.7002 19.8488 16.7002 20.3722V21.9183C16.6979 22.1021 16.7064 22.2858 16.7256 22.4686H16.218C16.2053 22.3158 16.199 22.1624 16.199 22.0087H16.1864C16.0763 22.1856 15.9201 22.329 15.7347 22.4235C15.5493 22.5181 15.3416 22.5601 15.1341 22.5452C14.5757 22.5452 14.0938 22.2258 14.0938 21.6377C14.0938 20.8581 14.8361 20.5901 15.7497 20.5901H16.1683V20.4621C16.1673 20.3715 16.1473 20.2821 16.1098 20.1997C16.0722 20.1173 16.0179 20.0437 15.9503 19.9835C15.8827 19.9234 15.8033 19.8781 15.7172 19.8505C15.6311 19.8229 15.5402 19.8136 15.4503 19.8233C15.1314 19.8238 14.8248 19.9469 14.5938 20.1673L14.2511 19.8107ZM15.8625 21.0117C15.3233 21.0117 14.6634 21.1076 14.6634 21.5932C14.6634 21.9383 14.9173 22.0852 15.3105 22.0852C15.4266 22.0916 15.5428 22.073 15.6511 22.0306C15.7595 21.9883 15.8575 21.9231 15.9387 21.8396C16.0198 21.7561 16.0822 21.6561 16.1216 21.5464C16.1609 21.4367 16.1764 21.3198 16.167 21.2036V21.0117H15.8625Z" fill="#616267"/>
<path d="M17.5762 17.6367H18.1483V22.4676H17.5762V17.6367Z" fill="#616267"/>
<path d="M20.8633 17.9434H22.4305C24.3274 17.9434 24.7904 19.3682 24.7904 20.2053C24.7904 21.3618 23.9339 22.4672 22.3287 22.4672H20.8633V17.9434ZM21.4722 21.8919H22.2397C23.2675 21.8919 24.143 21.3233 24.143 20.2053C24.143 19.6302 23.8456 18.5186 22.3857 18.5186H21.4722V21.8919Z" fill="#616267"/>
<path d="M25.8516 17.9297C25.9628 17.9307 26.0691 17.9755 26.1477 18.0544C26.2262 18.1333 26.2707 18.2399 26.2715 18.3513C26.2728 18.4073 26.2629 18.4629 26.2424 18.515C26.222 18.5671 26.1913 18.6145 26.1523 18.6545C26.1133 18.6946 26.0667 18.7264 26.0152 18.7481C25.9637 18.7698 25.9084 18.781 25.8526 18.781C25.7967 18.781 25.7415 18.7698 25.69 18.7481C25.6385 18.7264 25.5919 18.6946 25.5529 18.6545C25.5138 18.6145 25.4832 18.5671 25.4627 18.515C25.4423 18.4629 25.4324 18.4073 25.4337 18.3513C25.4345 18.2403 25.4787 18.1339 25.5568 18.0551C25.6349 17.9763 25.7407 17.9312 25.8516 17.9297ZM25.566 19.4373H26.1381V22.4661H25.566V19.4373Z" fill="#616267"/>
<path d="M27.043 19.4399H27.6151V19.9065H27.6276C27.7141 19.7422 27.8439 19.6047 28.0027 19.509C28.1616 19.4132 28.3436 19.3629 28.529 19.3633C28.6152 19.3626 28.7009 19.3755 28.783 19.4016L28.7576 20.0207C28.6668 19.9935 28.5729 19.9781 28.4782 19.9748C27.9196 19.9748 27.6151 20.2814 27.6151 20.9459V22.4685H27.043V19.4399Z" fill="#616267"/>
<path d="M29.7082 21.164C29.7082 21.6941 30.1968 22.0456 30.7232 22.0456C30.8866 22.0407 31.0466 21.997 31.1899 21.9182C31.3333 21.8394 31.4559 21.7276 31.5479 21.5921L31.9793 21.9243C31.8244 22.1285 31.622 22.2916 31.3898 22.3995C31.1576 22.5074 30.9026 22.5568 30.647 22.5434C29.6954 22.5434 29.0988 21.8533 29.0988 20.9524C29.0907 20.744 29.1252 20.5361 29.2001 20.3415C29.2749 20.147 29.3887 19.9698 29.5344 19.8208C29.68 19.6718 29.8545 19.5543 30.0471 19.4753C30.2397 19.3964 30.4463 19.3577 30.6544 19.3616C31.714 19.3616 32.1198 20.1795 32.1198 20.959V21.1636H29.7082V21.164ZM31.5101 20.7038C31.4976 20.1994 31.2185 19.8222 30.6409 19.8222C30.4022 19.8212 30.1723 19.9121 29.9988 20.0762C29.8252 20.2403 29.7211 20.465 29.7082 20.7038H31.5101Z" fill="#616267"/>
<path d="M34.9572 20.2442C34.8654 20.1354 34.7506 20.0486 34.6211 19.99C34.4916 19.9314 34.3507 19.9025 34.2087 19.9055C33.5867 19.9055 33.2708 20.41 33.2708 20.9788C33.2625 21.1113 33.2815 21.2441 33.3267 21.369C33.3718 21.4938 33.4421 21.608 33.5331 21.7045C33.6241 21.801 33.734 21.8776 33.8558 21.9297C33.9777 21.9819 34.1089 22.0083 34.2414 22.0074C34.3808 22.0121 34.5194 21.9838 34.646 21.9249C34.7726 21.866 34.8835 21.7781 34.97 21.6683L35.376 22.0773C35.2305 22.233 35.0531 22.3553 34.8559 22.4358C34.6588 22.5163 34.4467 22.5531 34.2341 22.5437C34.0247 22.5537 33.8156 22.5196 33.6201 22.4438C33.4246 22.368 33.2471 22.2521 33.0989 22.1035C32.9508 21.9549 32.8352 21.7769 32.7597 21.581C32.6842 21.385 32.6504 21.1754 32.6604 20.9655C32.649 20.7544 32.6817 20.5433 32.7565 20.3457C32.8313 20.148 32.9465 19.9682 33.0947 19.8178C33.2429 19.6674 33.4208 19.5498 33.6171 19.4724C33.8133 19.395 34.0236 19.3596 34.2343 19.3685C34.4495 19.363 34.6635 19.4027 34.8624 19.4853C35.0613 19.5678 35.2408 19.6913 35.3891 19.8477L34.9572 20.2442Z" fill="#616267"/>
<path d="M37.4757 19.9383H36.6569V21.3117C36.6569 21.6504 36.6569 22.0083 37.0885 22.0083C37.2293 22.0145 37.3694 21.9836 37.4946 21.9189V22.4428C37.332 22.5117 37.157 22.5465 36.9805 22.5451C36.0983 22.5451 36.0857 22.0021 36.0857 21.5165V19.9383H35.4258V19.4396H36.0857V18.5898H36.6578V19.4396H37.4766V19.9383H37.4757Z" fill="#616267"/>
<path d="M39.6652 19.3634C39.9786 19.3656 40.2843 19.4608 40.5439 19.637C40.8034 19.8131 41.005 20.0623 41.1235 20.3532C41.2419 20.6441 41.2717 20.9636 41.2093 21.2714C41.1468 21.5793 40.9948 21.8617 40.7725 22.0831C40.5501 22.3045 40.2674 22.4549 39.9598 22.5155C39.6523 22.5761 39.3337 22.544 39.0443 22.4234C38.7549 22.3028 38.5076 22.099 38.3336 21.8378C38.1596 21.5765 38.0666 21.2694 38.0664 20.9553C38.0658 20.7452 38.1068 20.537 38.1871 20.3429C38.2673 20.1488 38.3852 19.9726 38.534 19.8245C38.6827 19.6764 38.8593 19.5594 39.0535 19.4802C39.2476 19.4011 39.4556 19.3613 39.6652 19.3634ZM39.6652 22.0086C40.2739 22.0086 40.655 21.5677 40.655 20.9539C40.655 20.3401 40.2742 19.9006 39.6652 19.9006C39.0563 19.9006 38.6754 20.3413 38.6754 20.9553C38.6754 21.5693 39.0558 22.0086 39.6652 22.0086Z" fill="#616267"/>
<path d="M41.9805 19.4399H42.5525V19.9065H42.5654C42.6518 19.7421 42.7815 19.6046 42.9404 19.5089C43.0993 19.4131 43.2813 19.3628 43.4667 19.3633C43.5529 19.3626 43.6386 19.3755 43.7207 19.4016L43.6953 20.0207C43.6046 19.9935 43.5108 19.9781 43.4162 19.9748C42.8576 19.9748 42.553 20.2814 42.553 20.9459V22.4686H41.9809V19.4399H41.9805Z" fill="#616267"/>
<path d="M43.9688 19.4414H44.6276L45.522 21.8056H45.5348L46.3849 19.4414H47.0005L45.5728 23.1215C45.3699 23.6454 45.1732 24.0031 44.5452 24.0031C44.3723 24.0079 44.2001 23.9798 44.0376 23.9203L44.1074 23.3964C44.2161 23.4419 44.3327 23.4658 44.4505 23.4668C44.8122 23.4668 44.9202 23.2687 45.0341 22.9685L45.2182 22.4893L43.9688 19.4414Z" fill="#616267"/>
</g>
<defs>
<clipPath id="clip0_1684_33098">
<rect width="47" height="24" fill="white"/>
</clipPath>
</defs>
</svg>
