<svg width="34" height="24" viewBox="0 0 34 24" fill="none" xmlns="http://www.w3.org/2000/svg">
<path d="M33.402 16.0335C33.4715 16.0326 33.5397 16.0525 33.5979 16.0907C33.6561 16.1289 33.7018 16.1837 33.7289 16.248C33.7561 16.3123 33.7636 16.3833 33.7505 16.452C33.7374 16.5206 33.7043 16.5838 33.6554 16.6335C33.6065 16.6831 33.544 16.717 33.4758 16.7309C33.4077 16.7447 33.337 16.7378 33.2727 16.7111C33.2085 16.6844 33.1536 16.639 33.1151 16.5809C33.0765 16.5227 33.0561 16.4543 33.0563 16.3844C33.0553 16.3383 33.0635 16.2925 33.0804 16.2497C33.0974 16.2068 33.1227 16.1679 33.155 16.1351C33.1873 16.1024 33.2258 16.0765 33.2682 16.059C33.3106 16.0416 33.3561 16.0329 33.402 16.0335V15.9633C33.3192 15.9649 33.2388 15.9912 33.1708 16.0386C33.1028 16.0861 33.0502 16.1527 33.0198 16.2301C32.9893 16.3075 32.9823 16.3922 32.9995 16.4736C33.0168 16.555 33.0575 16.6295 33.1167 16.6877C33.1759 16.7459 33.2509 16.7852 33.3323 16.8007C33.4136 16.8161 33.4977 16.8071 33.5739 16.7747C33.6502 16.7423 33.7152 16.688 33.7609 16.6185C33.8065 16.5491 33.8308 16.4676 33.8305 16.3844C33.8302 16.3284 33.8187 16.273 33.797 16.2214C33.7752 16.1699 33.7434 16.1231 33.7036 16.084C33.6637 16.0448 33.6166 16.014 33.5648 15.9933C33.513 15.9726 33.4577 15.9624 33.402 15.9633V16.0335Z" fill="#616267"/>
<path d="M33.3129 16.2048H33.4151C33.4662 16.2048 33.5219 16.2161 33.5219 16.2761C33.5219 16.351 33.466 16.3554 33.4026 16.3554H33.3139V16.4182H33.3995L33.5286 16.6293H33.6119L33.4724 16.4146C33.4896 16.4146 33.5067 16.4112 33.5226 16.4044C33.5385 16.3976 33.5528 16.3876 33.5648 16.3751C33.5767 16.3626 33.586 16.3478 33.5921 16.3316C33.5982 16.3153 33.6009 16.2981 33.6001 16.2808C33.6001 16.1843 33.5426 16.1423 33.4269 16.1423H33.2403V16.6296H33.3147V16.2048H33.3129Z" fill="#616267"/>
<path d="M23.3526 2.00075C24.6673 1.98577 25.9719 2.23333 27.1909 2.72911C28.4098 3.22489 29.5189 3.95902 30.4538 4.88899C31.3888 5.81897 32.1311 6.9263 32.6377 8.14687C33.1443 9.36744 33.4051 10.677 33.4051 11.9997C33.4051 13.3224 33.1443 14.6319 32.6377 15.8525C32.1311 17.0731 31.3888 18.1804 30.4538 19.1104C29.5189 20.0404 28.4098 20.7745 27.1909 21.2703C25.9719 21.766 24.6673 22.0136 23.3526 21.9986C21.0193 22.0032 18.757 21.1913 16.9534 19.7021C15.4871 20.912 13.7111 21.6808 11.8297 21.92C9.94832 22.1593 8.038 21.8592 6.31863 21.0544C4.59925 20.2497 3.1407 18.9728 2.11082 17.3709C1.08095 15.769 0.521614 13.9072 0.497192 11.9996C0.521777 10.0921 1.08118 8.23044 2.11103 6.62871C3.14089 5.02698 4.59934 3.7503 6.31857 2.94558C8.0378 2.14086 9.94794 1.84079 11.8292 2.07992C13.7105 2.31904 15.4864 3.08763 16.9526 4.29725C18.7564 2.80782 21.019 1.99593 23.3526 2.00075ZM8.67238 10.719C8.30796 10.7204 7.94428 10.7521 7.58502 10.8136L7.48305 10.8321L7.47259 10.8344L7.46367 10.8359L7.45577 10.8375C7.4963 10.8298 8.03679 10.7241 7.44939 10.839L7.30535 11.5797C7.69089 11.5219 8.07937 11.486 8.46893 11.4722C8.79297 11.4843 9.15271 11.4363 9.04486 11.9501C8.80496 11.9744 7.12535 11.7113 6.86174 13.145C6.84154 13.2818 6.85257 13.4214 6.89401 13.5532C6.93544 13.685 7.00619 13.8056 7.10087 13.9058C7.19556 14.0061 7.31169 14.0833 7.44046 14.1316C7.56923 14.1799 7.70725 14.1981 7.84405 14.1848C8.32412 14.1609 8.45593 14.1006 8.62394 13.9814L8.74402 14.1724H9.61952L9.992 12.3073C10.0876 11.8426 10.2436 10.719 8.67238 10.719ZM24.5062 10.719C24.1418 10.7204 23.7781 10.7521 23.4189 10.8136L23.3439 10.8269C23.4752 10.8013 23.7406 10.75 23.3503 10.8269L23.2955 10.8372H23.3013L23.3414 10.8298L23.322 10.8336H23.3154L23.3057 10.8359H23.3011L23.2825 10.84L23.1387 11.5807C23.5241 11.5229 23.9125 11.487 24.302 11.4733L24.3953 11.4756C24.6908 11.4812 24.9761 11.4863 24.878 11.9511C24.638 11.9755 22.959 11.7123 22.6951 13.146C22.6748 13.2829 22.6858 13.4227 22.7273 13.5546C22.7688 13.6866 22.8396 13.8073 22.9345 13.9076C23.0293 14.0079 23.1456 14.0851 23.2746 14.1333C23.4036 14.1816 23.5417 14.1996 23.6787 14.186C24.1587 14.1622 24.2905 14.1019 24.4586 13.9827L24.5786 14.1737H25.4539L25.8261 12.3073C25.922 11.8426 26.0777 10.719 24.5062 10.719ZM14.3103 9.87079H13.3747L12.7271 13.1211C12.5468 14.0529 13.2548 14.1848 13.4705 14.1848C13.7132 14.1935 13.9538 14.1356 14.1663 14.0173L14.2262 13.3248C13.6865 13.4084 13.6622 13.1694 13.7102 12.9065L13.974 11.5215H14.4539L14.6216 10.7805H14.1183L14.3103 9.87079ZM16.146 10.731C14.6344 10.731 14.4424 12.225 14.4064 12.4399C14.3705 12.6549 14.3465 14.1727 15.9657 14.1727C16.3718 14.1976 16.7789 14.1449 17.1655 14.0175L17.3093 13.3127C16.96 13.368 16.6071 13.3959 16.2535 13.3963H16.1171C15.7528 13.3915 15.2947 13.3309 15.3898 12.6436H17.4294C17.5372 12.0934 17.7894 10.731 16.146 10.731ZM11.7792 10.719H11.732C11.4801 10.7218 10.5108 10.7687 10.352 11.5315C10.2199 12.1647 10.454 12.4271 10.6758 12.5233C11.0358 12.6787 11.24 12.8223 11.4317 12.918C11.4865 12.9448 11.5307 12.9896 11.5568 13.045C11.583 13.1004 11.5896 13.1631 11.5756 13.2228C11.5617 13.2825 11.5279 13.3357 11.4799 13.3735C11.4319 13.4113 11.3726 13.4316 11.3116 13.431C10.8979 13.4725 10.4803 13.4443 10.0759 13.3474L9.94407 14.0522C10.3043 14.1455 10.676 14.1858 11.0477 14.1717H11.1069C11.4248 14.1742 12.4018 14.1604 12.5471 13.2032C12.5911 13.0473 12.5833 12.8812 12.5248 12.7302C12.4664 12.5792 12.3605 12.4515 12.2233 12.3666C12.0086 12.2269 11.7841 12.103 11.5515 11.996C11.3595 11.9126 11.2158 11.59 11.5638 11.4943C11.8723 11.4632 12.1837 11.4792 12.4874 11.5417L12.4681 11.5364L12.4752 11.5384L12.4874 11.5417L12.7031 10.8493C12.4075 10.7416 12.0928 10.6971 11.7792 10.719ZM4.34233 10.0378H2.84272L2.03912 14.173H2.97453L3.5502 11.1855L3.80235 14.173H4.69008L5.99771 11.2571L5.44575 14.173H6.41634L7.19597 10.038H5.66195L4.52207 12.5477L4.34233 10.0378ZM18.8961 10.779H18.093L17.4556 14.173H18.3913L18.6794 12.6195C18.955 11.6038 19.3991 11.6754 19.6268 11.6754L19.8667 10.7792C19.7036 10.7664 19.5396 10.7895 19.3864 10.8471C19.2331 10.9047 19.0942 10.9954 18.9795 11.1127L18.8961 10.779ZM21.9394 9.83488C21.4476 9.85202 20.9749 10.0307 20.5937 10.3437C20.2124 10.6567 19.9435 11.0867 19.8282 11.5679C19.3489 13.312 20.4041 14.173 21.3757 14.173C21.767 14.1912 22.1572 14.1176 22.5153 13.958L22.2392 13.1214C21.2799 13.444 20.5961 12.9539 20.7519 11.9621C20.7856 11.6709 20.9168 11.3999 21.1239 11.1936C21.331 10.9873 21.6017 10.858 21.8915 10.8269C22.1429 10.8051 22.3947 10.8635 22.6112 10.9939L23.2231 10.3845C22.9834 10.1216 22.7076 9.86335 21.9394 9.83488ZM31.8238 9.82334H30.8404L30.5888 11.1378C30.4086 11.0062 30.3007 10.7315 29.8571 10.7315C29.3413 10.7315 28.5375 10.6359 28.0816 12.1894C27.7772 13.2281 28.3934 14.173 29.0652 14.173C29.3565 14.1554 29.638 14.0606 29.8811 13.8983L30.0014 14.173H31.0087L31.8238 9.82334ZM27.2712 10.7428H26.4591L25.8179 14.1704H26.763L27.0539 12.601C27.3323 11.5751 27.7678 11.6351 27.9988 11.6351L28.2537 10.742C28.0889 10.7293 27.9232 10.7529 27.7684 10.8113C27.6135 10.8697 27.4732 10.9614 27.3573 11.0801L27.2712 10.7428ZM23.9186 12.7269C24.0404 12.6606 24.174 12.619 24.3118 12.6047C24.4496 12.5903 24.5889 12.6035 24.7217 12.6433L24.6498 13.0139C24.5936 13.1723 24.4781 13.3022 24.3279 13.3759C24.1777 13.4496 24.0048 13.4612 23.8462 13.4081C23.5349 13.2886 23.6185 12.9303 23.9186 12.7269ZM8.08447 12.7269C8.20654 12.6603 8.34049 12.6187 8.47861 12.6043C8.61674 12.59 8.75632 12.6032 8.88934 12.6433L8.81745 13.0139C8.76126 13.1722 8.64571 13.3021 8.49552 13.3758C8.34533 13.4495 8.17244 13.4611 8.01385 13.4081C7.70077 13.2886 7.78465 12.9303 8.08447 12.7269ZM29.0413 12.3679C29.2432 11.6187 29.905 11.3163 30.1929 11.6987C30.3198 11.9593 30.3413 12.2591 30.253 12.5353C30.0848 12.9537 29.8693 13.2278 29.5211 13.2278C29.1968 13.2289 28.9092 12.8577 29.0413 12.3679ZM16.1936 11.4007C16.5653 11.4007 16.6734 11.6874 16.6135 12.0221H15.4499V12.0191L15.4731 11.9393C15.5084 11.7912 15.5906 11.6588 15.7074 11.5621C15.8243 11.4653 15.9693 11.4096 16.1205 11.4032L16.1936 11.4007ZM15.4759 11.917L15.465 11.9616L15.4601 11.9778L15.4642 11.9639L15.4759 11.917ZM15.4902 11.8605L15.4851 11.8821C15.5053 11.8016 15.4986 11.828 15.4851 11.8782L15.4902 11.8605ZM12.441 11.5312L12.4459 11.5328L12.4563 11.5353L12.441 11.5312ZM12.4 11.5202L12.4076 11.5225L12.4387 11.5307L12.4283 11.5282L12.4 11.5202ZM12.3855 11.5164L12.3931 11.5179L12.3819 11.5153L12.3855 11.5164ZM7.57304 10.8146L7.45959 10.8369H7.46316L7.48254 10.8334H7.4884L7.57304 10.8146ZM7.65565 10.7985L7.62505 10.8046L7.64774 10.8003L7.65565 10.7985ZM7.71505 10.7869L7.70332 10.7892L7.71326 10.7874L7.71505 10.7869ZM23.5492 10.7869L23.5372 10.7892L23.5035 10.7959L23.5211 10.7926L23.5492 10.7869Z" fill="#616267"/>
</svg>
